<?xml version="1.0" encoding="utf-8"?>
<!-- Generator: Adobe Illustrator 26.4.1, SVG Export Plug-In . SVG Version: 6.00 Build 0)  -->
<svg version="1.1" id="Layer_1" xmlns="http://www.w3.org/2000/svg" width="16" height="16" xmlns:xlink="http://www.w3.org/1999/xlink" x="0px" y="0px"
	 viewBox="0 0 16 16" style="enable-background:new 0 0 16 16;" xml:space="preserve">
<style type="text/css">
	.st0{fill:#FFFFFF;}
</style>
<g>
	<path class="st0" d="M12,13.7H9.3H8.6c-2,0-3.7-1.5-3.7-3.4c0-1.9,1.7-3.4,3.7-3.4h0.7h0.2h2.9L13,5.3H8.4c-3,0-5.4,2.2-5.4,5v0
		c0,2.8,2.4,5,5.4,5h4.5L12,13.7z"/>
	<polygon class="st0" points="8.2,2.6 4.5,4.3 4.5,6.9 8.2,6.9 	"/>
	<polygon class="st0" points="12.1,6.9 12.1,0.7 8.4,2.6 8.4,6.9 	"/>
	<ellipse class="st0" cx="9.3" cy="10.5" rx="1.7" ry="1.6"/>
</g>
</svg>
